# xmcd
#
# Track frame offsets:
#	187
#	29185
#	46095
#	66350
#	89777
#	106297
#	131000
#	151857
#	177467
#	199497
#	215057
#	235822
#
# Disc length: 3641 seconds
#
# Revision: 1
# Processed by: cddbd v1.5.2PL0 Copyright (c) Steve Scherf et al.
# Submitted via: audiograbber 1.83.01
#
DISCID=b80e370c
DTITLE=Various Artist - A Celebration Of Soul  - Volume One - The Chi-Sound Re
DTITLE=cords Collection
DYEAR=1994
DGENRE=Oldies
TTITLE0=Dells - Stay In My Corner
TTITLE1=Walter Jackson - Baby I Love Your Way
TTITLE2=Chi Lites - Heavenly Body
TTITLE3=Impressions - For Your Precious Love
TTITLE4=Manchild - These Are The Things That Are Special To Me
TTITLE5=Gene Chandler - Rainbow '80
TTITLE6=Paris - I Choose You
TTITLE7=Chi Lites - Have You Seen Her
TTITLE8=Manchild - One Tender Moment
TTITLE9=Walter Jackson - What Would You Do
TTITLE10=Impressions - All I Want To Do Is Make Love To You 
TTITLE11=Gene Chandler - Get Down
EXTD=
EXTT0=
EXTT1=
EXTT2=
EXTT3=
EXTT4=
EXTT5=
EXTT6=
EXTT7=
EXTT8=
EXTT9=
EXTT10=
EXTT11=
PLAYORDER=
